<svg xmlns="http://www.w3.org/2000/svg" width="800" height="320" viewBox="0 0 800 320" role="img" aria-labelledby="title desc"><title id="title">Agentic Flow</title><desc id="desc">Task routing, agent execution and adaptive memory. Animated orbital agent network.</desc><defs><radialGradient id="bg"><stop stop-color="#0b3039"/><stop offset="1" stop-color="#030a10"/></radialGradient><linearGradient id="mint"><stop stop-color="#b5fff0"/><stop offset="1" stop-color="#27cede"/></linearGradient></defs><style>text{font-family:Arial,sans-serif}.signal{stroke-dasharray:5 16;animation:flow 8s linear infinite}.pulse{animation:pulse 5s ease-in-out infinite}.orbit{transform-origin:600px 168px;animation:orbit 32s linear infinite}@keyframes flow{to{stroke-dashoffset:-168}}@keyframes pulse{50%{opacity:.4}}@keyframes orbit{to{transform:rotate(360deg)}}@media(prefers-reduced-motion:reduce){*{animation:none!important}}
.reveal{animation:reveal 10s ease-in-out infinite}.subtitle{animation:subtitle 10s ease-in-out infinite}.sweep{animation:sweep 10s linear infinite}.dial{transform-origin:600px 168px;animation:counter 24s linear infinite}.trace{stroke-dasharray:40 600;animation:trace 7s linear infinite}.lower{animation:lower 10s ease-in-out infinite}.progress{transform-origin:32px 300px;animation:progress 10s linear infinite}.chapter{animation:chapter 12s ease-in-out infinite}.focus{animation:focus 12s ease-in-out infinite}.beam{animation:beam 7s ease-in-out infinite}
@keyframes reveal{0%{opacity:.4;transform:translateX(-14px)}8%,92%{opacity:1;transform:translateX(0)}100%{opacity:.4;transform:translateX(-14px)}}
@keyframes subtitle{0%,6%{opacity:.35;transform:translateY(7px)}16%,92%{opacity:1;transform:translateY(0)}100%{opacity:.35;transform:translateY(7px)}}
@keyframes sweep{0%{transform:translateX(-800px);opacity:0}15%{opacity:.12}60%{opacity:.12}80%,100%{transform:translateX(800px);opacity:0}}
@keyframes counter{to{transform:rotate(-360deg)}}@keyframes trace{to{stroke-dashoffset:-640}}
@keyframes lower{0%,10%{transform:translateX(-12px);opacity:.3}20%,90%{transform:translateX(0);opacity:1}100%{transform:translateX(-12px);opacity:.3}}
@keyframes progress{0%{transform:scaleX(.02)}95%,100%{transform:scaleX(1)}}
@keyframes chapter{0%,22%{opacity:1}27%,95%{opacity:.18}100%{opacity:1}}
@keyframes focus{0%,22%{stroke:#a3ffea;fill:#12414a}27%,95%{stroke:#24515d;fill:#08212a}100%{stroke:#a3ffea;fill:#12414a}}
@keyframes beam{0%{transform:translateX(-110px);opacity:0}15%,70%{opacity:.8}100%{transform:translateX(110px);opacity:0}}
@media(prefers-reduced-motion:reduce){*{animation:none!important}.sweep{display:none}}
</style><rect x="1" y="1" width="798" height="318" rx="18" fill="url(#bg)" stroke="#20505b"/><text x="32" y="45" font-size="14" fill="#81dace" letter-spacing="2">RUVNET / AGENT ORCHESTRATION</text><text class="reveal" x="30" y="107" font-size="54" fill="url(#mint)" font-weight="700">Agentic Flow</text><text class="subtitle" x="32" y="148" font-size="23" fill="#e5faf7" >From a task to coordinated action.</text><text class="subtitle" x="32" y="181" font-size="20" fill="#aacbd1" >Route. Execute. Remember. Improve.</text><circle cx="600" cy="168" r="64" fill="none" stroke="#216473"/><circle cx="600" cy="168" r="100" fill="none" stroke="#216473"/><circle cx="600" cy="168" r="133" fill="none" stroke="#216473"/><g class="orbit"><path d="M600 168L733.0 168.0" stroke="#288a94" opacity=".55"/><circle cx="733.0" cy="168.0" r="5" fill="#99f3df"/><path d="M600 168L715.2 234.5" stroke="#288a94" opacity=".55"/><circle cx="715.2" cy="234.5" r="5" fill="#99f3df"/><path d="M600 168L666.5 283.2" stroke="#288a94" opacity=".55"/><circle cx="666.5" cy="283.2" r="5" fill="#99f3df"/><path d="M600 168L600.0 301.0" stroke="#288a94" opacity=".55"/><circle cx="600.0" cy="301.0" r="5" fill="#99f3df"/><path d="M600 168L533.5 283.2" stroke="#288a94" opacity=".55"/><circle cx="533.5" cy="283.2" r="5" fill="#99f3df"/><path d="M600 168L484.8 234.5" stroke="#288a94" opacity=".55"/><circle cx="484.8" cy="234.5" r="5" fill="#99f3df"/><path d="M600 168L467.0 168.0" stroke="#288a94" opacity=".55"/><circle cx="467.0" cy="168.0" r="5" fill="#99f3df"/><path d="M600 168L484.8 101.5" stroke="#288a94" opacity=".55"/><circle cx="484.8" cy="101.5" r="5" fill="#99f3df"/><path d="M600 168L533.5 52.8" stroke="#288a94" opacity=".55"/><circle cx="533.5" cy="52.8" r="5" fill="#99f3df"/><path d="M600 168L600.0 35.0" stroke="#288a94" opacity=".55"/><circle cx="600.0" cy="35.0" r="5" fill="#99f3df"/><path d="M600 168L666.5 52.8" stroke="#288a94" opacity=".55"/><circle cx="666.5" cy="52.8" r="5" fill="#99f3df"/><path d="M600 168L715.2 101.5" stroke="#288a94" opacity=".55"/><circle cx="715.2" cy="101.5" r="5" fill="#99f3df"/></g><circle class="pulse" cx="600" cy="168" r="38" fill="#103b44" stroke="#75e8d6"/><text x="600" y="175" font-size="20" fill="#b5fff0" text-anchor="middle">FLOW</text><path class="signal" d="M32 225H438" stroke="#6cebd8" fill="none"/><text x="32" y="276" font-size="17" fill="#9fbec8" >CLI  /  MCP  /  AgentDB  /  RuVector</text><g class="dial" fill="none" stroke="#5dd7ca"><path opacity=".55" d="M740.00 168.00L750.00 168.00"/><path opacity=".55" d="M738.80 186.27L743.76 186.93"/><path opacity=".55" d="M735.23 204.23L740.06 205.53"/><path opacity=".55" d="M729.34 221.58L733.96 223.49"/><path opacity=".55" d="M721.24 238.00L729.90 243.00"/><path opacity=".55" d="M711.07 253.23L715.04 256.27"/><path opacity=".55" d="M698.99 266.99L702.53 270.53"/><path opacity=".55" d="M685.23 279.07L688.27 283.04"/><path opacity=".55" d="M670.00 289.24L675.00 297.90"/><path opacity=".55" d="M653.58 297.34L655.49 301.96"/><path opacity=".55" d="M636.23 303.23L637.53 308.06"/><path opacity=".55" d="M618.27 306.80L618.93 311.76"/><path opacity=".55" d="M600.00 308.00L600.00 318.00"/><path opacity=".55" d="M581.73 306.80L581.07 311.76"/><path opacity=".55" d="M563.77 303.23L562.47 308.06"/><path opacity=".55" d="M546.42 297.34L544.51 301.96"/><path opacity=".55" d="M530.00 289.24L525.00 297.90"/><path opacity=".55" d="M514.77 279.07L511.73 283.04"/><path opacity=".55" d="M501.01 266.99L497.47 270.53"/><path opacity=".55" d="M488.93 253.23L484.96 256.27"/><path opacity=".55" d="M478.76 238.00L470.10 243.00"/><path opacity=".55" d="M470.66 221.58L466.04 223.49"/><path opacity=".55" d="M464.77 204.23L459.94 205.53"/><path opacity=".55" d="M461.20 186.27L456.24 186.93"/><path opacity=".55" d="M460.00 168.00L450.00 168.00"/><path opacity=".55" d="M461.20 149.73L456.24 149.07"/><path opacity=".55" d="M464.77 131.77L459.94 130.47"/><path opacity=".55" d="M470.66 114.42L466.04 112.51"/><path opacity=".55" d="M478.76 98.00L470.10 93.00"/><path opacity=".55" d="M488.93 82.77L484.96 79.73"/><path opacity=".55" d="M501.01 69.01L497.47 65.47"/><path opacity=".55" d="M514.77 56.93L511.73 52.96"/><path opacity=".55" d="M530.00 46.76L525.00 38.10"/><path opacity=".55" d="M546.42 38.66L544.51 34.04"/><path opacity=".55" d="M563.77 32.77L562.47 27.94"/><path opacity=".55" d="M581.73 29.20L581.07 24.24"/><path opacity=".55" d="M600.00 28.00L600.00 18.00"/><path opacity=".55" d="M618.27 29.20L618.93 24.24"/><path opacity=".55" d="M636.23 32.77L637.53 27.94"/><path opacity=".55" d="M653.58 38.66L655.49 34.04"/><path opacity=".55" d="M670.00 46.76L675.00 38.10"/><path opacity=".55" d="M685.23 56.93L688.27 52.96"/><path opacity=".55" d="M698.99 69.01L702.53 65.47"/><path opacity=".55" d="M711.07 82.77L715.04 79.73"/><path opacity=".55" d="M721.24 98.00L729.90 93.00"/><path opacity=".55" d="M729.34 114.42L733.96 112.51"/><path opacity=".55" d="M735.23 131.77L740.06 130.47"/><path opacity=".55" d="M738.80 149.73L743.76 149.07"/></g><path class="trace" d="M468 168A132 132 0 0 1 732 168" fill="none" stroke="#c3fff2" stroke-width="3"/><path d="M18 65V18H65M735 18H782V65M18 255V302H65M735 302H782V255" fill="none" stroke="#5ecaba" opacity=".5"/><path class="sweep" d="M0 2H90L240 318H150Z" fill="#9fffea" opacity="0"/><rect x="32" y="298" width="380" height="2" fill="#184551"/><rect class="progress" x="32" y="298" width="380" height="2" fill="#6de9d4"/></svg>
